# xmcd
#
# Track frame offsets: 
#        150
#        4546
#        14770
#        28929
#        44322
#        63927
#        81567
#        96974
#        120359
#        135335
#
# Disc length: 2090 seconds
#
# Revision: 0
# Processed by: cddbd v1.5.2PL0 Copyright (c) Steve Scherf et al.
# Submitted via: ExactAudioCopy v1.0b3
#
DISCID=7b08280a
DTITLE=Motrat Mustafa - Krushqit po na Vinë
DYEAR=2014
DGENRE=Folk
TTITLE0=Jan M'bledh Qikat
TTITLE1=O moj Lule
TTITLE2=Tush ta Blejti Lulijo
TTITLE3=Krushqit po na Vinë
TTITLE4=Mos ma qo dorën Përpjet
TTITLE5=Ndëgjohet Londra
TTITLE6=Djali Gostivarit
TTITLE7=Kur themi Këngën
TTITLE8=Amaneti Mërgimtarit
TTITLE9=Kush të Vrau
EXTD=
EXTT0=
EXTT1=
EXTT2=
EXTT3=
EXTT4=
EXTT5=
EXTT6=
EXTT7=
EXTT8=
EXTT9=
PLAYORDER=
